# File created by Blade
# Date/Time:  Mon Nov 15 14:44:42 2010
#---------------------------------------------------------
:version 1.10
:name HOM
:units
  mass 1.0
  length 1.000000
  angle deg
:documentation
     Acclaim Skeleton File
:root
   axis xyz
   order TX TY TZ RX RY RZ
   position 0.000000 0.000000 0.000000
   orientation 0 0 0
:bonedata
   begin
      id 1
      name LeftUpLeg_dum
      direction 1.000000 0.000000 0.000000
      length 4.719518
      axis 0.0 0.0 0.0 xyz
   end
   begin
      id 2
      name RightUpLeg_dum
      direction -1.000000 0.000000 0.000000
      length 4.719518
      axis 0.0 0.0 0.0 xyz
   end
   begin
      id 3
      name Spine_dum
      direction 0.000000 1.000000 0.000000
      length 0.039370
      axis 0.0 0.0 0.0 xyz
   end
   begin
      id 4
      name LeftUpLeg
      direction 0.000000 -1.000000 0.000000
      length 19.141694
      axis 0.0 0.0 0.0 xyz
      dof rx ry rz
   end
   begin
      id 5
      name LeftLeg
      direction 0.000000 -1.000000 0.000000
      length 19.555040
      axis 0.0 0.0 0.0 xyz
      dof rx ry rz
   end
   begin
      id 6
      name LeftFoot
      direction 0.000000 -0.258819 0.965926
      length 6.929396
      axis 15.0 0.0 0.0 xyz
      dof rx ry rz
   end
   begin
      id 7
      name LeftToeBase
      direction 0.000000 0.000000 1.000000
      length 2.952750
      axis 0.0 0.0 0.0 xyz
      dof rx ry rz
   end
   begin
      id 8
      name RightUpLeg
      direction 0.000000 -1.000000 0.000000
      length 19.141694
      axis 0.0 0.0 0.0 xyz
      dof rx ry rz
   end
   begin
      id 9
      name RightLeg
      direction 0.000000 -1.000000 0.000000
      length 19.555040
      axis 0.0 0.0 0.0 xyz
      dof rx ry rz
   end
   begin
      id 10
      name RightFoot
      direction 0.000000 -0.258819 0.965926
      length 6.929396
      axis 15.0 0.0 0.0 xyz
      dof rx ry rz
   end
   begin
      id 11
      name RightToeBase
      direction 0.000000 0.000000 1.000000
      length 2.952750
      axis 0.0 0.0 0.0 xyz
      dof rx ry rz
   end
   begin
      id 12
      name Spine
      direction 0.000000 1.000000 0.000000
      length 11.965764
      axis 0.0 0.0 0.0 xyz
      dof rx ry rz
   end
   begin
      id 13
      name Spine1
      direction 0.000000 1.000000 0.000000
      length 0.000000
      axis 0.0 0.0 0.0 xyz
      dof rx ry rz
   end
   begin
      id 14
      name Spine1_dum1
      direction 0.000000 1.000000 0.000000
      length 9.788721
      axis 0.0 0.0 0.0 xyz
   end
   begin
      id 15
      name Spine1_dum2
      direction 0.000000 1.000000 0.000000
      length 9.788721
      axis 0.0 0.0 0.0 xyz
   end
   begin
      id 16
      name Spine1_dum3
      direction 0.000000 1.000000 0.000000
      length 9.788721
      axis 0.0 0.0 0.0 xyz
   end
   begin
      id 17
      name Neck
      direction 0.000000 1.000000 0.000000
      length 7.029632
      axis 0.0 0.0 0.0 xyz
      dof rx ry rz
   end
   begin
      id 18
      name Head
      direction 0.000000 1.000000 0.000000
      length 4.527550
      axis 0.0 0.0 0.0 xyz
      dof rx ry rz
   end
   begin
      id 19
      name LeftShoulder
      direction 1.000000 -0.000004 0.000000
      length 9.320257
      axis 0.0 0.0 -90.0 xyz
      dof rx ry rz
   end
   begin
      id 20
      name LeftArm
      direction 1.000000 -0.000004 0.000000
      length 12.801352
      axis 0.0 0.0 -90.0 xyz
      dof rx ry rz
   end
   begin
      id 21
      name LeftForeArm
      direction 1.000000 -0.000004 0.000000
      length 11.278127
      axis 0.0 0.0 -90.0 xyz
      dof rx ry rz
   end
   begin
      id 22
      name LeftHand
      direction 0.000000 0.000000 0.000000
      length 0.000000
      axis 0.0 0.0 -90.0 xyz
      dof rx ry rz
   end
   begin
      id 23
      name LeftHand_dum1
      direction 0.000000 0.000000 0.000000
      length 0.000000
      axis 0.0 0.0 -90.0 xyz
   end
   begin
      id 24
      name LeftHand_dum2
      direction 1.000000 -0.000004 0.000000
      length 3.937000
      axis 0.0 0.0 -90.0 xyz
   end
   begin
      id 25
      name LeftHandThumb
      direction 0.000000 0.000000 1.000000
      length 3.937000
      axis 0.0 0.0 -90.0 xyz
      dof rx ry rz
   end
   begin
      id 26
      name RightShoulder
      direction -1.000000 -0.000004 0.000000
      length 9.320257
      axis 0.0 0.0 90.0 xyz
      dof rx ry rz
   end
   begin
      id 27
      name RightArm
      direction -1.000000 -0.000004 0.000000
      length 12.801352
      axis 0.0 0.0 90.0 xyz
      dof rx ry rz
   end
   begin
      id 28
      name RightForeArm
      direction -1.000000 -0.000004 0.000000
      length 11.278127
      axis 0.0 0.0 90.0 xyz
      dof rx ry rz
   end
   begin
      id 29
      name RightHand
      direction 0.000000 0.000000 0.000000
      length 0.000000
      axis 0.0 0.0 90.0 xyz
      dof rx ry rz
   end
   begin
      id 30
      name RightHand_dum1
      direction 0.000000 0.000000 0.000000
      length 0.000000
      axis 0.0 0.0 90.0 xyz
   end
   begin
      id 31
      name RightHand_dum2
      direction -1.000000 -0.000004 0.000000
      length 5.393690
      axis 0.0 0.0 90.0 xyz
   end
   begin
      id 32
      name RightHandThumb
      direction 0.000000 0.000000 1.000000
      length 3.937000
      axis 0.0 0.0 90.0 xyz
      dof rx ry rz
   end
:hierarchy
   begin
      root LeftUpLeg_dum RightUpLeg_dum Spine_dum
      LeftUpLeg_dum LeftUpLeg
      RightUpLeg_dum RightUpLeg
      Spine_dum Spine
      LeftUpLeg LeftLeg
      LeftLeg LeftFoot
      LeftFoot LeftToeBase
      RightUpLeg RightLeg
      RightLeg RightFoot
      RightFoot RightToeBase
      Spine Spine1
      Spine1 Spine1_dum1 Spine1_dum2 Spine1_dum3
      Spine1_dum1 Neck
      Spine1_dum2 LeftShoulder
      Spine1_dum3 RightShoulder
      Neck Head
      LeftShoulder LeftArm
      LeftArm LeftForeArm
      LeftForeArm LeftHand
      LeftHand LeftHand_dum1 LeftHand_dum2
      LeftHand_dum1 LeftHandThumb
      RightShoulder RightArm
      RightArm RightForeArm
      RightForeArm RightHand
      RightHand RightHand_dum1 RightHand_dum2
      RightHand_dum1 RightHandThumb
   end

# File created by Blade
# Date/Time:  Mon Nov 15 14:56:25 2010
# Frame Rate: 200.000 fps
#------------------------------------------------------
:FULLY-SPECIFIED
:DEGREES
448
root  6.574296 39.088337 -4.802930 -8.233756 6.595450 5.756097
LeftUpLeg  26.938560 2.193159 -9.825581
LeftLeg  -3.151861 0.000000 -0.000000
LeftFoot  -1.078735 2.215936 1.624809
LeftToeBase  -18.832892 0.000000 -0.000000
RightUpLeg  -16.802684 -5.151170 -5.398613
RightLeg  4.202903 -0.000000 0.000000
RightFoot  4.001424 -12.435603 -8.648590
RightToeBase  -32.437301 0.000000 -0.000000
Spine  12.873592 -4.250308 -4.367500
Spine1  3.565825 -3.600406 -4.357140
Neck  14.109420 -3.299364 -1.571960
Head  -22.450249 -4.800038 5.750628
LeftShoulder  -5.755144 7.776155 5.359056
LeftArm  33.059609 14.498076 -72.348484
LeftForeArm  41.943729 -0.000000 0.000000
LeftHand  -6.885815 7.764690 -9.991320
LeftHandThumb  0.000000 -0.000000 0.000000
RightShoulder  -14.041969 -14.980878 3.909112
RightArm  10.132775 -24.882694 76.436008
RightForeArm  12.351749 -0.000000 0.000000
RightHand  -11.588115 -6.779727 23.290394
RightHandThumb  0.000000 -0.000000 0.000000
449
root  6.571993 39.008007 -4.432133 -7.994969 6.998567 5.929052
LeftUpLeg  27.338800 2.146046 -9.839401
LeftLeg  -3.270119 0.000000 -0.000000
LeftFoot  -1.236154 1.916172 1.613177
LeftToeBase  -18.978525 0.000000 -0.000000
RightUpLeg  -16.886419 -5.308449 -5.603321
RightLeg  2.394674 -0.000000 0.000000
RightFoot  4.117116 -12.488063 -8.964542
RightToeBase  -32.760994 0.000000 -0.000000
Spine  12.728022 -4.306570 -4.424622
Spine1  3.593693 -3.675212 -4.411020
Neck  14.137242 -3.509633 -1.494728
Head  -22.581835 -4.858749 5.794662
LeftShoulder  -5.594383 7.686652 5.489851
LeftArm  33.629636 14.433546 -72.020220
LeftForeArm  42.504751 -0.000000 0.000000
LeftHand  -6.919969 7.870278 -9.919497
LeftHandThumb  0.000000 -0.000000 0.000000
RightShoulder  -14.306841 -15.077510 4.081248
RightArm  9.966629 -24.444391 76.496317
RightForeArm  12.251890 -0.000000 0.000000
RightHand  -11.537388 -6.875942 22.978240
RightHandThumb  0.000000 -0.000000 0.000000
450
root  6.568035 38.926434 -4.058946 -7.783046 7.396470 6.083205
LeftUpLeg  27.750131 2.192256 -9.776307
LeftLeg  -3.351536 0.000000 -0.000000
LeftFoot  -1.363923 1.578361 1.715121
LeftToeBase  -19.184329 0.000000 -0.000000
RightUpLeg  -17.000359 -5.547209 -5.753818
RightLeg  0.892315 -0.000000 0.000000
RightFoot  4.160346 -12.551607 -9.225135
RightToeBase  -32.962835 0.000000 -0.000000
Spine  12.623158 -4.365907 -4.486743
Spine1  3.571044 -3.757003 -4.436098
Neck  14.207362 -3.713056 -1.428111
Head  -22.722166 -4.905138 5.828143
LeftShoulder  -5.445352 7.650257 5.616881
LeftArm  34.171737 14.304528 -71.772656
LeftForeArm  43.019819 -0.000000 0.000000
LeftHand  -6.904895 7.969181 -9.770537
LeftHandThumb  0.000000 -0.000000 0.000000
RightShoulder  -14.553453 -15.217934 4.247172
RightArm  9.815947 -23.948234 76.542987
RightForeArm  12.215526 -0.000000 0.000000
RightHand  -11.481164 -6.846615 22.730563
RightHandThumb  0.000000 -0.000000 0.000000
451
root  6.561219 38.845109 -3.683183 -7.569848 7.793804 6.238985
LeftUpLeg  28.161525 2.238011 -9.712880
LeftLeg  -3.432952 0.000000 -0.000000
LeftFoot  -1.492275 1.240779 1.817804
LeftToeBase  -19.390133 0.000000 -0.000000
RightUpLeg  -17.113716 -5.786266 -5.903900
RightLeg  -0.610044 0.000000 -0.000000
RightFoot  4.203883 -12.614957 -9.485840
RightToeBase  -33.164676 0.000000 -0.000000
Spine  12.518349 -4.425357 -4.548761
Spine1  3.548430 -3.838803 -4.461147
Neck  14.277262 -3.916559 -1.361729
Head  -22.862533 -4.951445 5.861741
LeftShoulder  -5.296416 7.613535 5.743803
LeftArm  34.712946 14.173248 -71.526503
LeftForeArm  43.534886 -0.000000 0.000000
LeftHand  -6.889558 8.068044 -9.621513
LeftHandThumb  0.000000 -0.000000 0.000000
RightShoulder  -14.800650 -15.357666 4.413832
RightArm  9.666277 -23.451968 76.588057
RightForeArm  12.179161 -0.000000 0.000000
RightHand  -11.425073 -6.817048 22.482931
RightHandThumb  0.000000 -0.000000 0.000000
452
root  6.548652 38.765220 -3.305047 -7.384671 8.162241 6.362043
LeftUpLeg  28.549597 2.430570 -9.519826
LeftLeg  -3.407668 0.000000 -0.000000
LeftFoot  -1.636615 0.730891 1.885836
LeftToeBase  -19.632609 0.000000 -0.000000
RightUpLeg  -17.253051 -6.144205 -5.935902
RightLeg  -1.816945 0.000000 -0.000000
RightFoot  4.260219 -12.717741 -9.730479
RightToeBase  -33.568945 0.000000 -0.000000
Spine  12.448482 -4.485051 -4.607819
Spine1  3.486624 -3.922305 -4.464379
Neck  14.375719 -4.050167 -1.313616
Head  -23.013891 -5.009145 5.959712
LeftShoulder  -5.170305 7.564006 5.857960
LeftArm  35.137736 14.019992 -71.326551
LeftForeArm  44.068989 -0.000000 0.000000
LeftHand  -6.960959 8.175880 -9.501008
LeftHandThumb  0.000000 -0.000000 0.000000
RightShoulder  -15.037543 -15.513919 4.604050
RightArm  9.563616 -22.992182 76.583470
RightForeArm  12.125663 -0.000000 0.000000
RightHand  -11.322403 -6.811880 22.331204
RightHandThumb  0.000000 -0.000000 0.000000
453
root  6.535034 38.686951 -2.923019 -7.198519 8.530282 6.486421
LeftUpLeg  28.938374 2.621817 -9.325442
LeftLeg  -3.382383 0.000000 -0.000000
LeftFoot  -1.781550 0.221178 1.955148
LeftToeBase  -19.875085 0.000000 -0.000000
RightUpLeg  -17.392282 -6.502220 -5.967050
RightLeg  -3.023846 0.000000 -0.000000
RightFoot  4.317027 -12.820288 -9.975320
RightToeBase  -33.973214 0.000000 -0.000000
Spine  12.378671 -4.544817 -4.666810
Spine1  3.424818 -4.005809 -4.467521
Neck  14.474079 -4.183856 -1.265725
Head  -23.165361 -5.066586 6.057845
LeftShoulder  -5.044308 7.514229 5.971993
LeftArm  35.561689 13.865305 -71.127908
LeftForeArm  44.603092 -0.000000 0.000000
LeftHand  -7.032150 8.283864 -9.380607
LeftHandThumb  0.000000 -0.000000 0.000000
RightShoulder  -15.275153 -15.669411 4.795082
RightArm  9.461261 -22.532405 76.578005
RightForeArm  12.072165 -0.000000 0.000000
RightHand  -11.219749 -6.806442 22.179489
RightHandThumb  0.000000 -0.000000 0.000000
454
root  6.525967 38.610870 -2.534945 -7.060309 8.886938 6.594695
LeftUpLeg  29.330843 2.773193 -9.120055
LeftLeg  -3.273563 0.000000 -0.000000
LeftFoot  -1.872113 -0.233593 1.983147
LeftToeBase  -20.287971 0.000000 -0.000000
RightUpLeg  -17.596379 -7.101852 -5.859290
RightLeg  -3.780127 0.000000 -0.000000
RightFoot  4.198930 -12.927428 -10.074685
RightToeBase  -33.896973 0.000000 -0.000000
Spine  12.301164 -4.600763 -4.704242
Spine1  3.428956 -4.072914 -4.461482
Neck  14.537128 -4.352351 -1.215709
Head  -23.281019 -5.119166 6.065794
LeftShoulder  -4.935981 7.479418 6.016243
LeftArm  36.003063 13.699532 -70.882916
LeftForeArm  45.102378 -0.000000 0.000000
LeftHand  -7.015443 8.343985 -9.199184
LeftHandThumb  0.000000 -0.000000 0.000000
RightShoulder  -15.486552 -15.750674 4.948181
RightArm  9.286063 -22.053807 76.605962
RightForeArm  12.069396 -0.000000 0.000000
RightHand  -11.090049 -6.793681 21.978947
RightHandThumb  0.000000 -0.000000 0.000000
455
root  6.515842 38.537007 -2.142929 -6.921279 9.243334 6.703948
LeftUpLeg  29.723905 2.923160 -8.913607
LeftLeg  -3.164743 0.000000 -0.000000
LeftFoot  -1.962903 -0.688318 2.011865
LeftToeBase  -20.700856 0.000000 -0.000000
RightUpLeg  -17.801891 -7.701098 -5.749230
RightLeg  -4.536408 0.000000 -0.000000
RightFoot  4.080974 -13.034767 -10.173867
RightToeBase  -33.820733 0.000000 -0.000000
Spine  12.223688 -4.656759 -4.741601
Spine1  3.433087 -4.140018 -4.455448
Neck  14.600043 -4.520900 -1.165867
Head  -23.396693 -5.171730 6.073850
LeftShoulder  -4.827691 7.444525 6.060423
LeftArm  36.443394 13.531934 -70.639416
LeftForeArm  45.601664 -0.000000 0.000000
LeftHand  -6.998541 8.404053 -9.017715
LeftHandThumb  0.000000 -0.000000 0.000000
RightShoulder  -15.698260 -15.831393 5.101653
RightArm  9.111700 -21.575133 76.632252
RightForeArm  12.066627 -0.000000 0.000000
RightHand  -10.960399 -6.780468 21.778441
RightHandThumb  0.000000 -0.000000 0.000000
